<svg width="41" height="41" viewBox="0 0 41 41" fill="none" xmlns="http://www.w3.org/2000/svg">
<path fill-rule="evenodd" clip-rule="evenodd" d="M9.15777 3.69723C7.72711 4.69759 6.43341 5.88034 5.31036 7.21176C9.89966 6.78569 15.7302 7.48141 22.4994 10.866C29.728 14.4802 35.5488 14.6024 39.5998 13.821C39.2322 12.7081 38.7694 11.6385 38.2213 10.6217C33.584 11.1108 27.639 10.4634 20.7106 6.99934C16.311 4.79954 12.4328 3.89337 9.15777 3.69723ZM35.5124 6.76601C31.8503 2.67436 26.5284 0.0993652 20.605 0.0993652C18.8655 0.0993652 17.1777 0.321472 15.5687 0.738845C17.7479 1.33345 20.0629 2.20335 22.4994 3.42163C27.572 5.95789 31.9514 6.77452 35.5124 6.76601ZM40.4659 17.7274C35.5719 18.6938 28.8138 18.4953 20.7106 14.4437C13.135 10.6559 7.10547 10.7036 3.03894 11.6073C2.82904 11.6539 2.62408 11.7029 2.42407 11.7539C1.89166 12.9118 1.46668 14.1294 1.16174 15.3938C1.48743 15.3068 1.82397 15.2241 2.1712 15.1469C7.10461 14.0506 14.0751 14.0982 22.4994 18.3104C30.0751 22.0982 36.1046 22.0505 40.1712 21.1468C40.3105 21.1159 40.4478 21.0839 40.5828 21.0509C40.5976 20.7356 40.605 20.4183 40.605 20.0993C40.605 19.2968 40.5578 18.5053 40.4659 17.7274ZM39.9298 25.2716C35.0833 26.1189 28.522 25.7937 20.7106 21.8881C13.135 18.1003 7.10547 18.148 3.03894 19.0517C2.13629 19.2522 1.32428 19.4965 0.607972 19.7544C0.606019 19.8691 0.605042 19.9841 0.605042 20.0993C0.605042 31.145 9.55933 40.0993 20.605 40.0993C29.8621 40.0993 37.6503 33.8102 39.9298 25.2716Z" fill="#7F57F1"/>
</svg>
